<?xml version="1.0" encoding="iso-8859-1"?>
<!-- Generator: Adobe Illustrator 16.0.0, SVG Export Plug-In . SVG Version: 6.00 Build 0)  -->
<!DOCTYPE svg PUBLIC "-//W3C//DTD SVG 1.1//EN" "http://www.w3.org/Graphics/SVG/1.1/DTD/svg11.dtd">
<svg version="1.1" id="Capa_1" xmlns="http://www.w3.org/2000/svg" xmlns:xlink="http://www.w3.org/1999/xlink" x="0px" y="0px"
	 width="399.999px" height="399.999px" viewBox="0 0 399.999 399.999" style="enable-background:new 0 0 399.999 399.999;"
	 xml:space="preserve">
<g>
	<g>
		<path d="M384.479,124.05L272.873,12.814c-16.577-16.579-43.557-16.578-60.129,0.001L15.148,209.836
			c-20.343,20.346-20.175,53.611,0.373,74.158l92.898,92.898c20.551,20.555,40.594,23.604,53.788,22.542
			c14.804-1.188,29.723-8.305,40.938-19.521L384.85,198.206C405.193,177.859,405.027,144.598,384.479,124.05z M153.947,123.761
			l84.866-84.871c2.206-2.2,5.78-2.201,7.984-0.001l97.641,97.643c2.2,2.2,2.2,5.781,0,7.98l-84.868,84.871
			c-2.203,2.2-5.78,2.2-7.984,0l-97.637-97.64C151.742,129.542,151.742,125.963,153.947,123.761z M373.698,187.056L191.992,368.764
			c-16.005,16.006-44.582,24.821-72.42-3.021l-92.9-92.898c-10.563-10.564-13.456-25.896-8.65-38.917
			c1.537,8.09,5.431,15.814,11.679,22.063l97.638,97.641c16.583,16.579,43.552,16.579,60.135,0L370.516,170.59
			c6.114-6.12,9.973-13.656,11.572-21.562C386.688,161.943,383.908,176.846,373.698,187.056z"/>
	</g>
</g>
<g>
</g>
<g>
</g>
<g>
</g>
<g>
</g>
<g>
</g>
<g>
</g>
<g>
</g>
<g>
</g>
<g>
</g>
<g>
</g>
<g>
</g>
<g>
</g>
<g>
</g>
<g>
</g>
<g>
</g>
</svg>
