<?xml version="1.0" encoding="iso-8859-1"?>
<!-- Generator: Adobe Illustrator 19.0.0, SVG Export Plug-In . SVG Version: 6.00 Build 0)  -->
<svg version="1.1" id="Layer_1" xmlns="http://www.w3.org/2000/svg" xmlns:xlink="http://www.w3.org/1999/xlink" x="0px" y="0px"
	 viewBox="0 0 512 512" style="enable-background:new 0 0 512 512;" xml:space="preserve">
<path style="fill:#5286FA;" d="M448.484,74.014c-9.089-9.091-23.828-9.091-32.919,0c-9.091,9.089-9.091,23.827,0,32.919
	c66.536,66.536,66.536,174.8,0,241.335c-32.231,32.231-75.086,49.982-120.668,49.982s-88.435-17.75-120.668-49.982
	c-35.915-35.914-53.545-85.572-49.357-135.163l46.716,31.215c3.915,2.616,8.423,3.923,12.933,3.923
	c4.508,0,9.018-1.308,12.933-3.923c7.827-5.23,11.735-14.66,9.898-23.895l-26.75-134.493c-1.204-6.054-4.764-11.383-9.897-14.814
	c-5.135-3.428-11.417-4.679-17.473-3.475L18.738,94.394c-9.235,1.836-16.452,9.055-18.29,18.288s2.07,18.664,9.897,23.895
	l71.677,47.894c-14.336,70.988,7.601,145.03,59.289,196.714c41.025,41.024,95.569,63.618,153.586,63.618
	s112.561-22.594,153.586-63.618C533.171,296.498,533.171,158.701,448.484,74.014z"/>
<g>
</g>
<g>
</g>
<g>
</g>
<g>
</g>
<g>
</g>
<g>
</g>
<g>
</g>
<g>
</g>
<g>
</g>
<g>
</g>
<g>
</g>
<g>
</g>
<g>
</g>
<g>
</g>
<g>
</g>
</svg>
