<?xml version="1.0" encoding="iso-8859-1"?>
<!-- Generator: Adobe Illustrator 19.0.0, SVG Export Plug-In . SVG Version: 6.00 Build 0)  -->
<svg version="1.1" id="Layer_1" xmlns="http://www.w3.org/2000/svg" xmlns:xlink="http://www.w3.org/1999/xlink" x="0px" y="0px"
	 viewBox="0 0 512 512" style="enable-background:new 0 0 512 512;" xml:space="preserve">
<path style="fill:#3D6DEB;" d="M493.257,94.444l-134.489-26.75c-0.006-0.002-0.014-0.002-0.022-0.003
	c-0.763-0.151-1.53-0.264-2.303-0.338c-0.393-0.037-0.779-0.037-1.169-0.056c-0.36-0.016-0.72-0.048-1.08-0.048
	c-0.535,0-1.065,0.039-1.592,0.078c-0.22,0.016-0.438,0.014-0.658,0.036c-0.503,0.048-0.998,0.133-1.493,0.216
	c-0.251,0.04-0.506,0.068-0.757,0.118c-0.427,0.085-0.846,0.2-1.266,0.309c-0.318,0.082-0.636,0.151-0.951,0.245
	c-0.341,0.102-0.67,0.233-1.006,0.352c-0.385,0.137-0.77,0.262-1.148,0.421c-0.265,0.109-0.518,0.241-0.777,0.36
	c-0.428,0.196-0.86,0.386-1.277,0.61c-0.234,0.126-0.458,0.273-0.686,0.407c-0.421,0.242-0.841,0.479-1.251,0.751
	c-0.4,0.267-0.779,0.565-1.164,0.857c-0.214,0.163-0.436,0.306-0.646,0.476c-0.608,0.495-1.189,1.023-1.746,1.58
	c-0.002,0.002-0.003,0.003-0.005,0.005c-0.02,0.02-0.039,0.042-0.057,0.064c-0.523,0.526-1.023,1.077-1.496,1.654
	c-0.129,0.158-0.239,0.324-0.363,0.486c-0.343,0.439-0.681,0.881-0.993,1.349c-0.174,0.259-0.321,0.529-0.484,0.793
	c-0.231,0.38-0.47,0.756-0.68,1.151c-0.188,0.354-0.348,0.717-0.517,1.075c-0.152,0.324-0.313,0.639-0.452,0.971
	c-0.194,0.469-0.354,0.947-0.515,1.425c-0.082,0.242-0.178,0.476-0.251,0.722c-0.199,0.652-0.358,1.313-0.498,1.975
	c-0.019,0.085-0.047,0.166-0.064,0.253l-0.008,0.042c-0.008,0.033-0.014,0.064-0.02,0.096l-26.727,134.354
	c-2.508,12.608,5.68,24.861,18.288,27.371c1.533,0.304,3.062,0.452,4.565,0.452c10.88,0,20.602-7.664,22.805-18.74l16.629-83.597
	c35.257,64.738,25.543,147.648-29.165,202.356c-33.272,33.272-76.965,49.906-120.67,49.901
	c-43.694-0.003-87.402-16.637-120.667-49.9c-66.535-66.537-66.535-174.799,0-241.334c9.09-9.09,9.09-23.828,0-32.92
	c-9.089-9.089-23.828-9.089-32.918,0c-84.687,84.687-84.687,222.484,0,307.171c42.347,42.349,97.958,63.52,153.585,63.515
	c55.615-0.005,111.247-21.176,153.589-63.515c69.242-69.242,81.856-173.979,37.872-256.171l75.618,15.039
	c12.607,2.506,24.86-5.681,27.371-18.288C514.054,109.208,505.867,96.952,493.257,94.444z"/>
<g>
</g>
<g>
</g>
<g>
</g>
<g>
</g>
<g>
</g>
<g>
</g>
<g>
</g>
<g>
</g>
<g>
</g>
<g>
</g>
<g>
</g>
<g>
</g>
<g>
</g>
<g>
</g>
<g>
</g>
</svg>
